<svg xmlns="http://www.w3.org/2000/svg" version="1.1" xmlns:xlink="http://www.w3.org/1999/xlink" xmlns:svgjs="http://svgjs.com/svgjs" width="1440" height="560" preserveAspectRatio="none" viewBox="0 0 1440 560"><g mask="url(&quot;#SvgjsMask1082&quot;)" fill="none"><path d="M720 738.69C841.55 751.58 963.58 696.36 1047.42 607.42 1129.12 520.72 1153.77 399.14 1152.38 280 1150.98 162.53 1128.48 37.24 1039.77-39.77 954.84-113.48 832.27-102.02 720-95.29 616.88-89.1 511.92-74.04 436.44-3.56 358.61 69.13 314.41 173.58 318.09 280 321.66 383.26 387.21 466.97 455.31 544.69 530.25 630.23 606.92 726.73 720 738.69" fill="rgba(255, 77, 109, 1)"></path><path d="M720 576.8C798.65 585.14 877.61 549.41 931.86 491.86 984.73 435.76 1000.68 357.09 999.77 280 998.87 203.99 984.31 122.92 926.91 73.09 871.95 25.39 792.64 32.81 720 37.16 653.27 41.17 585.36 50.91 536.52 96.52 486.16 143.56 457.56 211.14 459.94 280 462.25 346.81 504.66 400.98 548.73 451.27 597.22 506.62 646.83 569.06 720 576.8" fill="rgba(201, 24, 74, 1)"></path><path d="M720 414.91C755.75 418.7 791.64 402.46 816.3 376.3 840.33 350.8 847.58 315.04 847.17 280 846.76 245.45 840.14 208.6 814.05 185.95 789.07 164.27 753.02 167.64 720 169.62 689.67 171.44 658.8 175.87 636.6 196.6 613.71 217.98 600.71 248.7 601.79 280 602.84 310.37 622.12 334.99 642.15 357.85 664.19 383.01 686.74 411.39 720 414.91" fill="rgba(164, 19, 60, 1)"></path></g><defs><mask id="SvgjsMask1082"><rect width="1440" height="560" fill="#ffffff"></rect></mask></defs></svg>